<?xml version="1.0" encoding="UTF-8" standalone="no"?>
<!DOCTYPE svg PUBLIC "-//W3C//DTD SVG 1.0//EN" "http://www.w3.org/TR/2001/PR-SVG-20010719/DTD/svg10.dtd">
<svg width="40cm" height="22cm" viewBox="3 -18 797 440" xmlns="http://www.w3.org/2000/svg" xmlns:xlink="http://www.w3.org/1999/xlink">
  <g>
    <rect style="fill: #ffffff" x="529.374" y="49.2272" width="89.6" height="36"/>
    <rect style="fill: none; fill-opacity:0; stroke-width: 2; stroke: #000000" x="529.374" y="49.2272" width="89.6" height="36"/>
    <text font-size="12.7998" style="fill: #000000;text-anchor:middle;font-family:monospace;font-style:normal;font-weight:normal" x="574.174" y="71.2272">Zawodnik</text>
  </g>
  <g>
    <rect style="fill: #ffffff" x="554" y="182" width="58.8" height="36"/>
    <rect style="fill: none; fill-opacity:0; stroke-width: 2; stroke: #000000" x="554" y="182" width="58.8" height="36"/>
    <text font-size="12.7998" style="fill: #000000;text-anchor:middle;font-family:monospace;font-style:normal;font-weight:normal" x="583.4" y="204">Klub</text>
  </g>
  <g>
    <rect style="fill: #ffffff" x="388.738" y="300.591" width="81.9" height="36"/>
    <rect style="fill: none; fill-opacity:0; stroke-width: 2; stroke: #000000" x="388.738" y="300.591" width="81.9" height="36"/>
    <text font-size="12.7998" style="fill: #000000;text-anchor:middle;font-family:monospace;font-style:normal;font-weight:normal" x="429.688" y="322.591">Stadion</text>
  </g>
  <g>
    <rect style="fill: #ffffff" x="82.2619" y="72.3094" width="74.2" height="36"/>
    <rect style="fill: none; fill-opacity:0; stroke-width: 2; stroke: #000000" x="82.2619" y="72.3094" width="74.2" height="36"/>
    <text font-size="12.7998" style="fill: #000000;text-anchor:middle;font-family:monospace;font-style:normal;font-weight:normal" x="119.362" y="94.3094">Sędzia</text>
  </g>
  <g>
    <rect style="fill: #ffffff" x="221.881" y="185.201" width="58.8" height="36"/>
    <rect style="fill: none; fill-opacity:0; stroke-width: 2; stroke: #000000" x="221.881" y="185.201" width="58.8" height="36"/>
    <text font-size="12.7998" style="fill: #000000;text-anchor:middle;font-family:monospace;font-style:normal;font-weight:normal" x="251.281" y="207.201">Mecz</text>
  </g>
  <g>
    <ellipse style="fill: #ffffff" cx="545.314" cy="246.824" rx="27.7" ry="18"/>
    <ellipse style="fill: none; fill-opacity:0; stroke-width: 2; stroke: #000000" cx="545.314" cy="246.824" rx="27.7" ry="18"/>
    <text font-size="12.7998" style="fill: #000000;text-anchor:middle;font-family:monospace;font-style:normal;font-weight:normal" x="545.314" y="250.824">ID</text>
    <line style="fill: none; fill-opacity:0; stroke-width: 2; stroke: #000000" x1="537.614" y1="254.824" x2="553.014" y2="254.824"/>
  </g>
  <line style="fill: none; fill-opacity:0; stroke-width: 2; stroke: #000000" x1="558.871" y1="230.156" x2="567.941" y2="219.005"/>
  <g>
    <ellipse style="fill: #ffffff" cx="666.975" cy="143.409" rx="39.25" ry="18"/>
    <ellipse style="fill: none; fill-opacity:0; stroke-width: 2; stroke: #000000" cx="666.975" cy="143.409" rx="39.25" ry="18"/>
    <text font-size="12.7998" style="fill: #000000;text-anchor:middle;font-family:monospace;font-style:normal;font-weight:normal" x="666.975" y="147.409">Nazwa</text>
  </g>
  <g>
    <ellipse style="fill: #ffffff" cx="664.103" cy="194.799" rx="39.25" ry="18"/>
    <ellipse style="fill: none; fill-opacity:0; stroke-width: 2; stroke: #000000" cx="664.103" cy="194.799" rx="39.25" ry="18"/>
    <text font-size="12.7998" style="fill: #000000;text-anchor:middle;font-family:monospace;font-style:normal;font-weight:normal" x="664.103" y="198.799">Adres</text>
  </g>
  <g>
    <ellipse style="fill: #ffffff" cx="750.895" cy="176.671" rx="39.25" ry="18"/>
    <ellipse style="fill: none; fill-opacity:0; stroke-width: 2; stroke: #000000" cx="750.895" cy="176.671" rx="39.25" ry="18"/>
    <text font-size="12.7998" style="fill: #000000;text-anchor:middle;font-family:monospace;font-style:normal;font-weight:normal" x="750.895" y="180.671">Ulica</text>
  </g>
  <g>
    <ellipse style="fill: #ffffff" cx="755.886" cy="128.604" rx="43.1" ry="18"/>
    <ellipse style="fill: none; fill-opacity:0; stroke-width: 2; stroke: #000000" cx="755.886" cy="128.604" rx="43.1" ry="18"/>
    <text font-size="12.7998" style="fill: #000000;text-anchor:middle;font-family:monospace;font-style:normal;font-weight:normal" x="755.886" y="132.604">Miasto</text>
  </g>
  <line style="fill: none; fill-opacity:0; stroke-width: 2; stroke: #000000" x1="733.472" y1="144.769" x2="685.979" y2="179.022"/>
  <line style="fill: none; fill-opacity:0; stroke-width: 2; stroke: #000000" x1="714.237" y1="184.327" x2="700.761" y2="187.142"/>
  <g>
    <ellipse style="fill: #ffffff" cx="749.627" cy="217.336" rx="39.25" ry="18"/>
    <ellipse style="fill: none; fill-opacity:0; stroke-width: 2; stroke: #000000" cx="749.627" cy="217.336" rx="39.25" ry="18"/>
    <text font-size="12.7998" style="fill: #000000;text-anchor:middle;font-family:monospace;font-style:normal;font-weight:normal" x="749.627" y="221.336">Numer</text>
  </g>
  <line style="fill: none; fill-opacity:0; stroke-width: 2; stroke: #000000" x1="714.621" y1="208.111" x2="699.108" y2="204.023"/>
  <line style="fill: none; fill-opacity:0; stroke-width: 2; stroke: #000000" x1="644.449" y1="158.662" x2="611.15" y2="181.21"/>
  <line style="fill: none; fill-opacity:0; stroke-width: 2; stroke: #000000" x1="624.303" y1="197.364" x2="613.792" y2="198.041"/>
  <g>
    <polygon style="fill: #ffffff" points="548.165,130.03 579.715,111.1 611.265,130.03 579.715,148.96 "/>
    <polygon style="fill: none; fill-opacity:0; stroke-width: 2; stroke: #000000" points="548.165,130.03 579.715,111.1 611.265,130.03 579.715,148.96 "/>
    <text font-size="12.7998" style="fill: #000000;text-anchor:end;font-family:monospace;font-style:normal;font-weight:normal" x="542.165" y="124.03"/>
    <text font-size="12.7998" style="fill: #000000;text-anchor:start;font-family:monospace;font-style:normal;font-weight:normal" x="617.265" y="124.03"/>
    <text font-size="12.7998" style="fill: #000000;text-anchor:middle;font-family:monospace;font-style:normal;font-weight:normal" x="579.715" y="134.03">Gra</text>
  </g>
  <g>
    <line style="fill: none; fill-opacity:0; stroke-width: 2; stroke: #000000" x1="575.846" y1="86.1784" x2="577.959" y2="110.128"/>
    <line style="fill: none; fill-opacity:0; stroke-width: 2; stroke: #000000" x1="576.725" y1="96.1397" x2="580.827" y2="85.7389"/>
    <line style="fill: none; fill-opacity:0; stroke-width: 2; stroke: #000000" x1="576.725" y1="96.1397" x2="570.865" y2="86.6178"/>
    <line style="fill: none; fill-opacity:0; stroke-width: 2; stroke: #000000" x1="581.706" y1="95.7002" x2="571.744" y2="96.5791"/>
  </g>
  <line style="fill: none; fill-opacity:0; stroke-width: 2; stroke: #000000" x1="579.715" y1="130.03" x2="579.715" y2="130.03"/>
  <g>
    <ellipse style="fill: #ffffff" cx="488.319" cy="60.4362" rx="27.7" ry="18"/>
    <ellipse style="fill: none; fill-opacity:0; stroke-width: 2; stroke: #000000" cx="488.319" cy="60.4362" rx="27.7" ry="18"/>
    <text font-size="12.7998" style="fill: #000000;text-anchor:middle;font-family:monospace;font-style:normal;font-weight:normal" x="488.319" y="64.4362">ID</text>
    <line style="fill: none; fill-opacity:0; stroke-width: 2; stroke: #000000" x1="480.619" y1="68.4362" x2="496.019" y2="68.4362"/>
  </g>
  <line style="fill: none; fill-opacity:0; stroke-width: 2; stroke: #000000" x1="516.658" y1="62.6778" x2="528.375" y2="63.6046"/>
  <g>
    <ellipse style="fill: #ffffff" cx="527.019" cy="13.4362" rx="35.4" ry="18"/>
    <ellipse style="fill: none; fill-opacity:0; stroke-width: 2; stroke: #000000" cx="527.019" cy="13.4362" rx="35.4" ry="18"/>
    <text font-size="12.7998" style="fill: #000000;text-anchor:middle;font-family:monospace;font-style:normal;font-weight:normal" x="527.019" y="17.4362">Imię</text>
  </g>
  <g>
    <ellipse style="fill: #ffffff" cx="636.419" cy="14.4362" rx="50.8" ry="18"/>
    <ellipse style="fill: none; fill-opacity:0; stroke-width: 2; stroke: #000000" cx="636.419" cy="14.4362" rx="50.8" ry="18"/>
    <text font-size="12.7998" style="fill: #000000;text-anchor:middle;font-family:monospace;font-style:normal;font-weight:normal" x="636.419" y="18.4362">Nazwisko</text>
  </g>
  <line style="fill: none; fill-opacity:0; stroke-width: 2; stroke: #000000" x1="542.089" y1="30.6268" x2="557.55" y2="48.2638"/>
  <line style="fill: none; fill-opacity:0; stroke-width: 2; stroke: #000000" x1="616.079" y1="31.6874" x2="596.581" y2="48.2232"/>
  <g>
    <ellipse style="fill: #ffffff" cx="37.4396" cy="90.214" rx="27.7" ry="18"/>
    <ellipse style="fill: none; fill-opacity:0; stroke-width: 2; stroke: #000000" cx="37.4396" cy="90.214" rx="27.7" ry="18"/>
    <text font-size="12.7998" style="fill: #000000;text-anchor:middle;font-family:monospace;font-style:normal;font-weight:normal" x="37.4396" y="94.214">ID</text>
    <line style="fill: none; fill-opacity:0; stroke-width: 2; stroke: #000000" x1="29.7396" y1="98.214" x2="45.1396" y2="98.214"/>
  </g>
  <line style="fill: none; fill-opacity:0; stroke-width: 2; stroke: #000000" x1="66.1304" y1="90.2474" x2="81.2708" y2="90.265"/>
  <g>
    <ellipse style="fill: #ffffff" cx="137.191" cy="32.5821" rx="35.4" ry="18"/>
    <ellipse style="fill: none; fill-opacity:0; stroke-width: 2; stroke: #000000" cx="137.191" cy="32.5821" rx="35.4" ry="18"/>
    <text font-size="12.7998" style="fill: #000000;text-anchor:middle;font-family:monospace;font-style:normal;font-weight:normal" x="137.191" y="36.5821">Imię</text>
  </g>
  <line style="fill: none; fill-opacity:0; stroke-width: 2; stroke: #000000" x1="131.406" y1="51.3125" x2="125.232" y2="71.3042"/>
  <g>
    <ellipse style="fill: #ffffff" cx="234.145" cy="29.928" rx="50.8" ry="18"/>
    <ellipse style="fill: none; fill-opacity:0; stroke-width: 2; stroke: #000000" cx="234.145" cy="29.928" rx="50.8" ry="18"/>
    <text font-size="12.7998" style="fill: #000000;text-anchor:middle;font-family:monospace;font-style:normal;font-weight:normal" x="234.145" y="33.928">Nazwisko</text>
  </g>
  <line style="fill: none; fill-opacity:0; stroke-width: 2; stroke: #000000" x1="204.882" y1="45.3219" x2="155.484" y2="71.3076"/>
  <g>
    <ellipse style="fill: #ffffff" cx="57.7925" cy="139.546" rx="50.8" ry="18"/>
    <ellipse style="fill: none; fill-opacity:0; stroke-width: 2; stroke: #000000" cx="57.7925" cy="139.546" rx="50.8" ry="18"/>
    <text font-size="12.7998" style="fill: #000000;text-anchor:middle;font-family:monospace;font-style:normal;font-weight:normal" x="57.7925" y="143.546">Licencja</text>
  </g>
  <line style="fill: none; fill-opacity:0; stroke-width: 2; stroke: #000000" x1="79.1524" y1="122.464" x2="95.5969" y2="109.314"/>
  <g>
    <ellipse style="fill: #ffffff" cx="47.2313" cy="30.313" rx="43.1" ry="18"/>
    <ellipse style="fill: none; fill-opacity:0; stroke-width: 2; stroke: #000000" cx="47.2313" cy="30.313" rx="43.1" ry="18"/>
    <text font-size="12.7998" style="fill: #000000;text-anchor:middle;font-family:monospace;font-style:normal;font-weight:normal" x="47.2313" y="34.313">Region</text>
  </g>
  <line style="fill: none; fill-opacity:0; stroke-width: 2; stroke: #000000" x1="67.3243" y1="47.0259" x2="96.5217" y2="71.3115"/>
  <g>
    <ellipse style="fill: #ffffff" cx="635.648" cy="258.123" rx="46.95" ry="18"/>
    <ellipse style="fill: none; fill-opacity:0; stroke-width: 2; stroke: #000000" cx="635.648" cy="258.123" rx="46.95" ry="18"/>
    <text font-size="12.7998" style="fill: #000000;text-anchor:middle;font-family:monospace;font-style:normal;font-weight:normal" x="635.648" y="262.123">Telefon</text>
  </g>
  <line style="fill: none; fill-opacity:0; stroke-width: 2; stroke: #000000" x1="619.703" y1="240.386" x2="600.467" y2="218.987"/>
  <g>
    <ellipse style="fill: #ffffff" cx="743.844" cy="261.325" rx="43.1" ry="18"/>
    <ellipse style="fill: none; fill-opacity:0; stroke-width: 2; stroke: #000000" cx="743.844" cy="261.325" rx="43.1" ry="18"/>
    <text font-size="12.7998" style="fill: #000000;text-anchor:middle;font-family:monospace;font-style:normal;font-weight:normal" x="743.844" y="265.325">Strona</text>
  </g>
  <line style="fill: none; fill-opacity:0; stroke-width: 2; stroke: #000000" x1="711.175" y1="248.838" x2="613.806" y2="211.622"/>
  <g>
    <polygon style="fill: #ffffff" points="540.679,317.204 583.779,291.344 626.879,317.204 583.779,343.064 "/>
    <polygon style="fill: none; fill-opacity:0; stroke-width: 2; stroke: #000000" points="540.679,317.204 583.779,291.344 626.879,317.204 583.779,343.064 "/>
    <text font-size="12.7998" style="fill: #000000;text-anchor:end;font-family:monospace;font-style:normal;font-weight:normal" x="534.679" y="311.204"/>
    <text font-size="12.7998" style="fill: #000000;text-anchor:start;font-family:monospace;font-style:normal;font-weight:normal" x="632.879" y="311.204"/>
    <text font-size="12.7998" style="fill: #000000;text-anchor:middle;font-family:monospace;font-style:normal;font-weight:normal" x="583.779" y="321.204">Gra na</text>
  </g>
  <g>
    <polygon style="fill: #ffffff" points="200.273,89.1962 251.073,58.7162 301.873,89.1962 251.073,119.676 "/>
    <polygon style="fill: none; fill-opacity:0; stroke-width: 2; stroke: #000000" points="200.273,89.1962 251.073,58.7162 301.873,89.1962 251.073,119.676 "/>
    <text font-size="12.7998" style="fill: #000000;text-anchor:end;font-family:monospace;font-style:normal;font-weight:normal" x="194.273" y="83.1962"/>
    <text font-size="12.7998" style="fill: #000000;text-anchor:start;font-family:monospace;font-style:normal;font-weight:normal" x="307.873" y="83.1962"/>
    <text font-size="12.7998" style="fill: #000000;text-anchor:middle;font-family:monospace;font-style:normal;font-weight:normal" x="251.073" y="93.1962">Sędziuje</text>
  </g>
  <g>
    <line style="fill: none; fill-opacity:0; stroke-width: 2; stroke: #000000" x1="157.451" y1="89.9875" x2="199.286" y2="89.6339"/>
    <line style="fill: none; fill-opacity:0; stroke-width: 2; stroke: #000000" x1="167.45" y1="89.903" x2="157.409" y2="84.9877"/>
    <line style="fill: none; fill-opacity:0; stroke-width: 2; stroke: #000000" x1="167.45" y1="89.903" x2="157.493" y2="94.9873"/>
    <line style="fill: none; fill-opacity:0; stroke-width: 2; stroke: #000000" x1="167.408" y1="84.9032" x2="167.493" y2="94.9028"/>
  </g>
  <g>
    <line style="fill: none; fill-opacity:0; stroke-width: 2; stroke: #000000" x1="251.131" y1="120.682" x2="251.246" y2="184.205"/>
    <line style="fill: none; fill-opacity:0; stroke-width: 2; stroke: #000000" x1="256.237" y1="179.196" x2="246.237" y2="179.214"/>
    <path style="fill: none; fill-opacity:0; stroke-width: 2; stroke: #000000" d="M 251.223 171.705 C 248.723,171.709 246.221,170.464 246.219,169.214 C 246.217,167.964 248.714,166.709 251.214,166.705 C 253.714,166.7 256.217,167.946 256.219,169.196 C 256.221,170.446 253.723,171.7 251.223,171.705"/>
  </g>
  <g>
    <polygon style="fill: #ffffff" points="191.737,320.042 250.237,284.942 308.737,320.042 250.237,355.142 "/>
    <polygon style="fill: none; fill-opacity:0; stroke-width: 2; stroke: #000000" points="191.737,320.042 250.237,284.942 308.737,320.042 250.237,355.142 "/>
    <text font-size="12.7998" style="fill: #000000;text-anchor:end;font-family:monospace;font-style:normal;font-weight:normal" x="185.737" y="314.042"/>
    <text font-size="12.7998" style="fill: #000000;text-anchor:start;font-family:monospace;font-style:normal;font-weight:normal" x="314.737" y="314.042"/>
    <text font-size="12.7998" style="fill: #000000;text-anchor:middle;font-family:monospace;font-style:normal;font-weight:normal" x="250.237" y="324.042">Ma miejsce</text>
  </g>
  <g>
    <line style="fill: none; fill-opacity:0; stroke-width: 2; stroke: #000000" x1="250.617" y1="284.038" x2="251.281" y2="221.201"/>
    <line style="fill: none; fill-opacity:0; stroke-width: 2; stroke: #000000" x1="246.228" y1="226.148" x2="256.228" y2="226.253"/>
    <line style="fill: none; fill-opacity:0; stroke-width: 2; stroke: #000000" x1="246.175" y1="231.147" x2="256.175" y2="231.253"/>
  </g>
  <g>
    <line style="fill: none; fill-opacity:0; stroke-width: 2; stroke: #000000" x1="309.743" y1="319.561" x2="387.733" y2="318.93"/>
    <line style="fill: none; fill-opacity:0; stroke-width: 2; stroke: #000000" x1="382.693" y1="313.971" x2="382.774" y2="323.97"/>
    <line style="fill: none; fill-opacity:0; stroke-width: 2; stroke: #000000" x1="377.693" y1="314.011" x2="377.774" y2="324.011"/>
  </g>
  <g>
    <line style="fill: none; fill-opacity:0; stroke-width: 2; stroke: #000000" x1="539.679" y1="317.601" x2="471.644" y2="318.213"/>
    <line style="fill: none; fill-opacity:0; stroke-width: 2; stroke: #000000" x1="476.688" y1="323.168" x2="476.598" y2="313.169"/>
    <line style="fill: none; fill-opacity:0; stroke-width: 2; stroke: #000000" x1="481.688" y1="323.123" x2="481.598" y2="313.124"/>
  </g>
  <g>
    <line style="fill: none; fill-opacity:0; stroke-width: 2; stroke: #000000" x1="583.676" y1="290.339" x2="583.4" y2="218"/>
    <line style="fill: none; fill-opacity:0; stroke-width: 2; stroke: #000000" x1="578.419" y1="223.019" x2="588.419" y2="222.981"/>
    <line style="fill: none; fill-opacity:0; stroke-width: 2; stroke: #000000" x1="578.438" y1="228.019" x2="588.438" y2="227.981"/>
  </g>
  <g>
    <ellipse style="fill: #ffffff" cx="305.489" cy="254.073" rx="27.7" ry="18"/>
    <ellipse style="fill: none; fill-opacity:0; stroke-width: 2; stroke: #000000" cx="305.489" cy="254.073" rx="27.7" ry="18"/>
    <text font-size="12.7998" style="fill: #000000;text-anchor:middle;font-family:monospace;font-style:normal;font-weight:normal" x="305.489" y="258.073">ID</text>
    <line style="fill: none; fill-opacity:0; stroke-width: 2; stroke: #000000" x1="297.789" y1="262.073" x2="313.189" y2="262.073"/>
  </g>
  <line style="fill: none; fill-opacity:0; stroke-width: 2; stroke: #000000" x1="288.992" y1="238.592" x2="271.516" y2="222.191"/>
  <g>
    <ellipse style="fill: #ffffff" cx="306.475" cy="135.608" rx="39.25" ry="18"/>
    <ellipse style="fill: none; fill-opacity:0; stroke-width: 2; stroke: #000000" cx="306.475" cy="135.608" rx="39.25" ry="18"/>
    <text font-size="12.7998" style="fill: #000000;text-anchor:middle;font-family:monospace;font-style:normal;font-weight:normal" x="306.475" y="139.608">Wynik</text>
  </g>
  <line style="fill: none; fill-opacity:0; stroke-width: 2; stroke: #000000" x1="292.077" y1="153.241" x2="265.942" y2="185.247"/>
  <g>
    <ellipse style="fill: #ffffff" cx="198.497" cy="251.055" rx="35.4" ry="18"/>
    <ellipse style="fill: none; fill-opacity:0; stroke-width: 2; stroke: #000000" cx="198.497" cy="251.055" rx="35.4" ry="18"/>
    <text font-size="12.7998" style="fill: #000000;text-anchor:middle;font-family:monospace;font-style:normal;font-weight:normal" x="198.497" y="255.055">Data</text>
  </g>
  <g>
    <ellipse style="fill: #ffffff" cx="194.201" cy="137.872" rx="46.95" ry="18"/>
    <ellipse style="fill: none; fill-opacity:0; stroke-width: 2; stroke: #000000" cx="194.201" cy="137.872" rx="46.95" ry="18"/>
    <text font-size="12.7998" style="fill: #000000;text-anchor:middle;font-family:monospace;font-style:normal;font-weight:normal" x="194.201" y="141.872">Godzina</text>
  </g>
  <line style="fill: none; fill-opacity:0; stroke-width: 2; stroke: #000000" x1="209.767" y1="155.687" x2="234.725" y2="184.253"/>
  <line style="fill: none; fill-opacity:0; stroke-width: 2; stroke: #000000" x1="216.551" y1="234.687" x2="230.321" y2="222.204"/>
  <g>
    <ellipse style="fill: #ffffff" cx="680.134" cy="57.8892" rx="46.95" ry="18"/>
    <ellipse style="fill: none; fill-opacity:0; stroke-width: 2; stroke: #000000" cx="680.134" cy="57.8892" rx="46.95" ry="18"/>
    <text font-size="12.7998" style="fill: #000000;text-anchor:middle;font-family:monospace;font-style:normal;font-weight:normal" x="680.134" y="61.8892">Telefon</text>
  </g>
  <line style="fill: none; fill-opacity:0; stroke-width: 2; stroke: #000000" x1="633.57" y1="61.9928" x2="619.976" y2="63.1908"/>
  <g>
    <ellipse style="fill: #ffffff" cx="356.905" cy="352.635" rx="39.25" ry="18"/>
    <ellipse style="fill: none; fill-opacity:0; stroke-width: 2; stroke: #000000" cx="356.905" cy="352.635" rx="39.25" ry="18"/>
    <text font-size="12.7998" style="fill: #000000;text-anchor:middle;font-family:monospace;font-style:normal;font-weight:normal" x="356.905" y="356.635">Adres</text>
  </g>
  <line style="fill: none; fill-opacity:0; stroke-width: 2; stroke: #000000" x1="385.283" y1="339.362" x2="389.174" y2="337.541"/>
  <g>
    <ellipse style="fill: #ffffff" cx="509.219" cy="281.992" rx="27.7" ry="18"/>
    <ellipse style="fill: none; fill-opacity:0; stroke-width: 2; stroke: #000000" cx="509.219" cy="281.992" rx="27.7" ry="18"/>
    <text font-size="12.7998" style="fill: #000000;text-anchor:middle;font-family:monospace;font-style:normal;font-weight:normal" x="509.219" y="285.992">ID</text>
    <line style="fill: none; fill-opacity:0; stroke-width: 2; stroke: #000000" x1="501.519" y1="289.992" x2="516.919" y2="289.992"/>
  </g>
  <line style="fill: none; fill-opacity:0; stroke-width: 2; stroke: #000000" x1="485.7" y1="292.815" x2="470.852" y2="299.648"/>
  <g>
    <ellipse style="fill: #ffffff" cx="306.11" cy="401.426" rx="43.1" ry="18"/>
    <ellipse style="fill: none; fill-opacity:0; stroke-width: 2; stroke: #000000" cx="306.11" cy="401.426" rx="43.1" ry="18"/>
    <text font-size="12.7998" style="fill: #000000;text-anchor:middle;font-family:monospace;font-style:normal;font-weight:normal" x="306.11" y="405.426">Miasto</text>
  </g>
  <g>
    <ellipse style="fill: #ffffff" cx="411.465" cy="403.56" rx="39.25" ry="18"/>
    <ellipse style="fill: none; fill-opacity:0; stroke-width: 2; stroke: #000000" cx="411.465" cy="403.56" rx="39.25" ry="18"/>
    <text font-size="12.7998" style="fill: #000000;text-anchor:middle;font-family:monospace;font-style:normal;font-weight:normal" x="411.465" y="407.56">Ulica</text>
  </g>
  <g>
    <ellipse style="fill: #ffffff" cx="453.97" cy="358.161" rx="39.25" ry="18"/>
    <ellipse style="fill: none; fill-opacity:0; stroke-width: 2; stroke: #000000" cx="453.97" cy="358.161" rx="39.25" ry="18"/>
    <text font-size="12.7998" style="fill: #000000;text-anchor:middle;font-family:monospace;font-style:normal;font-weight:normal" x="453.97" y="362.161">Numer</text>
  </g>
  <line style="fill: none; fill-opacity:0; stroke-width: 2; stroke: #000000" x1="323.993" y1="384.249" x2="339.283" y2="369.562"/>
  <line style="fill: none; fill-opacity:0; stroke-width: 2; stroke: #000000" x1="393.423" y1="386.72" x2="374.947" y2="369.475"/>
  <line style="fill: none; fill-opacity:0; stroke-width: 2; stroke: #000000" x1="414.04" y1="355.888" x2="396.835" y2="354.908"/>
  <g>
    <ellipse style="fill: #ffffff" cx="415.886" cy="270.929" rx="54.65" ry="18"/>
    <ellipse style="fill: none; fill-opacity:0; stroke-width: 2; stroke: #000000" cx="415.886" cy="270.929" rx="54.65" ry="18"/>
    <text font-size="12.7998" style="fill: #000000;text-anchor:middle;font-family:monospace;font-style:normal;font-weight:normal" x="415.886" y="274.929">Pojemnosc</text>
  </g>
  <line style="fill: none; fill-opacity:0; stroke-width: 2; stroke: #000000" x1="421.345" y1="289.78" x2="424.185" y2="299.589"/>
  <g>
    <line style="fill: none; fill-opacity:0; stroke-width: 2; stroke: #000000" x1="580.764" y1="149.957" x2="582.399" y2="180.996"/>
    <line style="fill: none; fill-opacity:0; stroke-width: 2; stroke: #000000" x1="587.129" y1="175.74" x2="577.143" y2="176.265"/>
    <path style="fill: none; fill-opacity:0; stroke-width: 2; stroke: #000000" d="M 581.742 168.513 C 579.245,168.644 576.683,167.528 576.617,166.279 C 576.551,165.031 578.982,163.651 581.479,163.52 C 583.975,163.388 586.538,164.505 586.603,165.753 C 586.669,167.002 584.238,168.381 581.742,168.513"/>
  </g>
  <g>
    <polygon style="fill: #ffffff" points="375.883,202.416 426.683,171.936 477.483,202.416 426.683,232.896 "/>
    <polygon style="fill: none; fill-opacity:0; stroke-width: 2; stroke: #000000" points="375.883,202.416 426.683,171.936 477.483,202.416 426.683,232.896 "/>
    <text font-size="12.7998" style="fill: #000000;text-anchor:end;font-family:monospace;font-style:normal;font-weight:normal" x="369.883" y="196.416"/>
    <text font-size="12.7998" style="fill: #000000;text-anchor:start;font-family:monospace;font-style:normal;font-weight:normal" x="483.483" y="196.416"/>
    <text font-size="12.7998" style="fill: #000000;text-anchor:middle;font-family:monospace;font-style:normal;font-weight:normal" x="426.683" y="206.416">Rozgrywa</text>
  </g>
  <g>
    <line style="fill: none; fill-opacity:0; stroke-width: 2; stroke: #000000" x1="478.45" y1="201.618" x2="553.002" y2="200.469"/>
    <line style="fill: none; fill-opacity:0; stroke-width: 2; stroke: #000000" x1="547.925" y1="195.546" x2="548.079" y2="205.545"/>
    <line style="fill: none; fill-opacity:0; stroke-width: 2; stroke: #000000" x1="542.926" y1="195.623" x2="543.08" y2="205.622"/>
  </g>
  <g>
    <line style="fill: none; fill-opacity:0; stroke-width: 2; stroke: #000000" x1="374.91" y1="202.648" x2="281.642" y2="203.065"/>
    <line style="fill: none; fill-opacity:0; stroke-width: 2; stroke: #000000" x1="291.642" y1="203.02" x2="281.62" y2="198.065"/>
    <line style="fill: none; fill-opacity:0; stroke-width: 2; stroke: #000000" x1="291.642" y1="203.02" x2="281.665" y2="208.065"/>
    <line style="fill: none; fill-opacity:0; stroke-width: 2; stroke: #000000" x1="291.62" y1="198.02" x2="291.664" y2="208.02"/>
  </g>
  <g>
    <rect style="fill: #ffffff" x="371.332" y="27.5202" width="74.2" height="36"/>
    <rect style="fill: none; fill-opacity:0; stroke-width: 2; stroke: #000000" x="371.332" y="27.5202" width="74.2" height="36"/>
    <text font-size="12.7998" style="fill: #000000;text-anchor:middle;font-family:monospace;font-style:normal;font-weight:normal" x="408.432" y="49.5202">Trener</text>
  </g>
  <g>
    <ellipse style="fill: #ffffff" cx="332.716" cy="6.57169" rx="27.7" ry="18"/>
    <ellipse style="fill: none; fill-opacity:0; stroke-width: 2; stroke: #000000" cx="332.716" cy="6.57169" rx="27.7" ry="18"/>
    <text font-size="12.7998" style="fill: #000000;text-anchor:middle;font-family:monospace;font-style:normal;font-weight:normal" x="332.716" y="10.5717">ID</text>
    <line style="fill: none; fill-opacity:0; stroke-width: 2; stroke: #000000" x1="325.016" y1="14.5717" x2="340.416" y2="14.5717"/>
  </g>
  <line style="fill: none; fill-opacity:0; stroke-width: 2; stroke: #000000" x1="355.328" y1="18.2035" x2="371.609" y2="26.5784"/>
  <g>
    <ellipse style="fill: #ffffff" cx="325.689" cy="54.4878" rx="35.4" ry="18"/>
    <ellipse style="fill: none; fill-opacity:0; stroke-width: 2; stroke: #000000" cx="325.689" cy="54.4878" rx="35.4" ry="18"/>
    <text font-size="12.7998" style="fill: #000000;text-anchor:middle;font-family:monospace;font-style:normal;font-weight:normal" x="325.689" y="58.4878">Imię</text>
  </g>
  <g>
    <ellipse style="fill: #ffffff" cx="355.118" cy="95.0063" rx="50.8" ry="18"/>
    <ellipse style="fill: none; fill-opacity:0; stroke-width: 2; stroke: #000000" cx="355.118" cy="95.0063" rx="50.8" ry="18"/>
    <text font-size="12.7998" style="fill: #000000;text-anchor:middle;font-family:monospace;font-style:normal;font-weight:normal" x="355.118" y="99.0063">Nazwisko</text>
  </g>
  <g>
    <ellipse style="fill: #ffffff" cx="426.621" cy="1.62457" rx="50.8" ry="18"/>
    <ellipse style="fill: none; fill-opacity:0; stroke-width: 2; stroke: #000000" cx="426.621" cy="1.62457" rx="50.8" ry="18"/>
    <text font-size="12.7998" style="fill: #000000;text-anchor:middle;font-family:monospace;font-style:normal;font-weight:normal" x="426.621" y="5.62457">Licencja</text>
  </g>
  <line style="fill: none; fill-opacity:0; stroke-width: 2; stroke: #000000" x1="418.856" y1="20.3627" x2="416.305" y2="26.5195"/>
  <line style="fill: none; fill-opacity:0; stroke-width: 2; stroke: #000000" x1="361.283" y1="50.6302" x2="370.323" y2="49.6504"/>
  <line style="fill: none; fill-opacity:0; stroke-width: 2; stroke: #000000" x1="373.972" y1="77.5061" x2="387.958" y2="64.5245"/>
  <g>
    <polygon style="fill: #ffffff" points="371.907,129.124 422.707,98.6444 473.507,129.124 422.707,159.604 "/>
    <polygon style="fill: none; fill-opacity:0; stroke-width: 2; stroke: #000000" points="371.907,129.124 422.707,98.6444 473.507,129.124 422.707,159.604 "/>
    <text font-size="12.7998" style="fill: #000000;text-anchor:end;font-family:monospace;font-style:normal;font-weight:normal" x="365.907" y="123.124"/>
    <text font-size="12.7998" style="fill: #000000;text-anchor:start;font-family:monospace;font-style:normal;font-weight:normal" x="479.507" y="123.124"/>
    <text font-size="12.7998" style="fill: #000000;text-anchor:middle;font-family:monospace;font-style:normal;font-weight:normal" x="422.707" y="133.124">Prowadzi</text>
  </g>
  <g>
    <path style="fill: none; fill-opacity:0; stroke-width: 2; stroke: #000000" d="M 474.515 129.124 C 513.339,129.124 541.717,153.306 566.467,181.032"/>
    <line style="fill: none; fill-opacity:0; stroke-width: 2; stroke: #000000" x1="566.867" y1="173.972" x2="559.407" y2="180.631"/>
    <line style="fill: none; fill-opacity:0; stroke-width: 2; stroke: #000000" x1="563.538" y1="170.242" x2="556.078" y2="176.901"/>
  </g>
  <g>
    <line style="fill: none; fill-opacity:0; stroke-width: 2; stroke: #000000" x1="411.675" y1="64.5128" x2="417.331" y2="97.6402"/>
    <line style="fill: none; fill-opacity:0; stroke-width: 2; stroke: #000000" x1="407.588" y1="70.283" x2="417.445" y2="68.5999"/>
    <line style="fill: none; fill-opacity:0; stroke-width: 2; stroke: #000000" x1="408.429" y1="75.2117" x2="418.287" y2="73.5286"/>
  </g>
  <g>
    <ellipse style="fill: #ffffff" cx="121.784" cy="204.147" rx="50.8" ry="18"/>
    <ellipse style="fill: none; fill-opacity:0; stroke-width: 2; stroke: #000000" cx="121.784" cy="204.147" rx="50.8" ry="18"/>
    <text font-size="12.7998" style="fill: #000000;text-anchor:middle;font-family:monospace;font-style:normal;font-weight:normal" x="121.784" y="208.147">Strzelcy</text>
    <line style="fill: none; fill-opacity:0; stroke-width: 2; stroke-dasharray: 6; stroke: #000000" x1="90.9845" y1="212.147" x2="152.584" y2="212.147"/>
  </g>
  <line style="fill: none; fill-opacity:0; stroke-width: 2; stroke: #000000" x1="173.578" y1="203.768" x2="220.898" y2="203.423"/>
</svg>
